<mxfile host="app.diagrams.net" modified="2024-04-11T02:06:05.295Z" agent="Mozilla/5.0 (Windows NT 10.0; Win64; x64) AppleWebKit/537.36 (KHTML, like Gecko) Chrome/123.0.0.0 Safari/537.36" etag="djaEym3N1QzeP8rGZ3D9" version="24.2.1" type="github">
  <diagram id="C5RBs43oDa-KdzZeNtuy" name="Page-1">
    <mxGraphModel dx="1290" dy="574" grid="1" gridSize="10" guides="1" tooltips="1" connect="1" arrows="1" fold="1" page="1" pageScale="1" pageWidth="827" pageHeight="1169" math="0" shadow="0">
      <root>
        <mxCell id="WIyWlLk6GJQsqaUBKTNV-0" />
        <mxCell id="WIyWlLk6GJQsqaUBKTNV-1" parent="WIyWlLk6GJQsqaUBKTNV-0" />
        <mxCell id="XxHlgfPTAKnLRC4UXlWn-5" style="edgeStyle=orthogonalEdgeStyle;rounded=0;orthogonalLoop=1;jettySize=auto;html=1;exitX=1;exitY=0.5;exitDx=0;exitDy=0;entryX=0;entryY=0.5;entryDx=0;entryDy=0;" edge="1" parent="WIyWlLk6GJQsqaUBKTNV-1" source="WIyWlLk6GJQsqaUBKTNV-3" target="RKyfr51ifwYay8Xh3c_W-4">
          <mxGeometry relative="1" as="geometry">
            <Array as="points">
              <mxPoint x="290" y="120" />
              <mxPoint x="290" y="270" />
            </Array>
          </mxGeometry>
        </mxCell>
        <mxCell id="WIyWlLk6GJQsqaUBKTNV-3" value="&lt;font style=&quot;font-size: 24px;&quot;&gt;&lt;b&gt;寫題目&lt;/b&gt;&lt;/font&gt;" style="rounded=1;whiteSpace=wrap;html=1;fontSize=12;glass=0;strokeWidth=1;shadow=0;fillColor=#fff2cc;strokeColor=#d6b656;" parent="WIyWlLk6GJQsqaUBKTNV-1" vertex="1">
          <mxGeometry x="150" y="100" width="120" height="40" as="geometry" />
        </mxCell>
        <mxCell id="XxHlgfPTAKnLRC4UXlWn-6" style="edgeStyle=orthogonalEdgeStyle;rounded=0;orthogonalLoop=1;jettySize=auto;html=1;exitX=1;exitY=0.5;exitDx=0;exitDy=0;entryX=0;entryY=0.5;entryDx=0;entryDy=0;" edge="1" parent="WIyWlLk6GJQsqaUBKTNV-1" source="RKyfr51ifwYay8Xh3c_W-2" target="y4FVQO3krvTa0PLzqtoc-12">
          <mxGeometry relative="1" as="geometry" />
        </mxCell>
        <mxCell id="XxHlgfPTAKnLRC4UXlWn-17" style="edgeStyle=orthogonalEdgeStyle;rounded=0;orthogonalLoop=1;jettySize=auto;html=1;exitX=1;exitY=0.5;exitDx=0;exitDy=0;entryX=0;entryY=0.5;entryDx=0;entryDy=0;" edge="1" parent="WIyWlLk6GJQsqaUBKTNV-1" source="RKyfr51ifwYay8Xh3c_W-2" target="y4FVQO3krvTa0PLzqtoc-13">
          <mxGeometry relative="1" as="geometry" />
        </mxCell>
        <mxCell id="XxHlgfPTAKnLRC4UXlWn-18" style="edgeStyle=orthogonalEdgeStyle;rounded=0;orthogonalLoop=1;jettySize=auto;html=1;exitX=1;exitY=0.5;exitDx=0;exitDy=0;entryX=0;entryY=0.5;entryDx=0;entryDy=0;" edge="1" parent="WIyWlLk6GJQsqaUBKTNV-1" source="RKyfr51ifwYay8Xh3c_W-2" target="y4FVQO3krvTa0PLzqtoc-14">
          <mxGeometry relative="1" as="geometry" />
        </mxCell>
        <mxCell id="RKyfr51ifwYay8Xh3c_W-2" value="&lt;font style=&quot;font-size: 24px;&quot;&gt;&lt;b&gt;打程式&lt;/b&gt;&lt;/font&gt;" style="rounded=1;whiteSpace=wrap;html=1;fontSize=12;glass=0;strokeWidth=1;shadow=0;fillColor=#fff2cc;strokeColor=#d6b656;" parent="WIyWlLk6GJQsqaUBKTNV-1" vertex="1">
          <mxGeometry x="420" y="100" width="120" height="40" as="geometry" />
        </mxCell>
        <mxCell id="XxHlgfPTAKnLRC4UXlWn-8" style="edgeStyle=orthogonalEdgeStyle;rounded=0;orthogonalLoop=1;jettySize=auto;html=1;exitX=0.5;exitY=0;exitDx=0;exitDy=0;entryX=0.5;entryY=1;entryDx=0;entryDy=0;" edge="1" parent="WIyWlLk6GJQsqaUBKTNV-1" source="RKyfr51ifwYay8Xh3c_W-4" target="RKyfr51ifwYay8Xh3c_W-2">
          <mxGeometry relative="1" as="geometry" />
        </mxCell>
        <mxCell id="RKyfr51ifwYay8Xh3c_W-4" value="&lt;font style=&quot;font-size: 14px;&quot;&gt;看網路上的提示&lt;/font&gt;&lt;div&gt;&lt;font style=&quot;font-size: 12px;&quot;&gt;(通常是XX演算法)&lt;/font&gt;&lt;/div&gt;" style="rounded=1;whiteSpace=wrap;html=1;fontSize=12;glass=0;strokeWidth=1;shadow=0;fillColor=#D5E8D4;strokeColor=#6c8ebf;" parent="WIyWlLk6GJQsqaUBKTNV-1" vertex="1">
          <mxGeometry x="414" y="240" width="130" height="60" as="geometry" />
        </mxCell>
        <mxCell id="y4FVQO3krvTa0PLzqtoc-5" value="&lt;font style=&quot;font-size: 18px;&quot;&gt;沒想法&lt;/font&gt;" style="text;html=1;align=center;verticalAlign=middle;resizable=0;points=[];autosize=1;strokeColor=#6c8ebf;fillColor=#F8CECC;" parent="WIyWlLk6GJQsqaUBKTNV-1" vertex="1">
          <mxGeometry x="300" y="220" width="80" height="40" as="geometry" />
        </mxCell>
        <mxCell id="y4FVQO3krvTa0PLzqtoc-6" value="&lt;font style=&quot;font-size: 18px;&quot;&gt;有解題思路&lt;/font&gt;" style="text;html=1;align=center;verticalAlign=middle;whiteSpace=wrap;rounded=0;fillColor=#fff2cc;strokeColor=#d6b656;" parent="WIyWlLk6GJQsqaUBKTNV-1" vertex="1">
          <mxGeometry x="300" y="80" width="100" height="30" as="geometry" />
        </mxCell>
        <mxCell id="XxHlgfPTAKnLRC4UXlWn-20" style="edgeStyle=orthogonalEdgeStyle;rounded=0;orthogonalLoop=1;jettySize=auto;html=1;exitX=1;exitY=0.5;exitDx=0;exitDy=0;entryX=0;entryY=0.5;entryDx=0;entryDy=0;" edge="1" parent="WIyWlLk6GJQsqaUBKTNV-1" source="y4FVQO3krvTa0PLzqtoc-9" target="y4FVQO3krvTa0PLzqtoc-30">
          <mxGeometry relative="1" as="geometry" />
        </mxCell>
        <mxCell id="y4FVQO3krvTa0PLzqtoc-9" value="&lt;font style=&quot;font-size: 24px;&quot;&gt;&lt;b&gt;AC(正解)&lt;/b&gt;&lt;/font&gt;" style="rounded=1;whiteSpace=wrap;html=1;fontSize=12;glass=0;strokeWidth=1;shadow=0;fillColor=#fff2cc;strokeColor=#d6b656;" parent="WIyWlLk6GJQsqaUBKTNV-1" vertex="1">
          <mxGeometry x="860" y="100" width="120" height="40" as="geometry" />
        </mxCell>
        <mxCell id="XxHlgfPTAKnLRC4UXlWn-13" style="edgeStyle=orthogonalEdgeStyle;rounded=0;orthogonalLoop=1;jettySize=auto;html=1;exitX=1;exitY=0.5;exitDx=0;exitDy=0;entryX=0.5;entryY=1;entryDx=0;entryDy=0;" edge="1" parent="WIyWlLk6GJQsqaUBKTNV-1" source="y4FVQO3krvTa0PLzqtoc-12" target="y4FVQO3krvTa0PLzqtoc-9">
          <mxGeometry relative="1" as="geometry" />
        </mxCell>
        <mxCell id="y4FVQO3krvTa0PLzqtoc-12" value="&lt;font style=&quot;font-size: 18px;&quot;&gt;TLE(超時)&lt;/font&gt;" style="rounded=1;whiteSpace=wrap;html=1;fontSize=12;glass=0;strokeWidth=1;shadow=0;fillColor=#F8CECC;strokeColor=#6c8ebf;" parent="WIyWlLk6GJQsqaUBKTNV-1" vertex="1">
          <mxGeometry x="610" y="200" width="150" height="40" as="geometry" />
        </mxCell>
        <mxCell id="XxHlgfPTAKnLRC4UXlWn-14" style="edgeStyle=orthogonalEdgeStyle;rounded=0;orthogonalLoop=1;jettySize=auto;html=1;exitX=1;exitY=0.5;exitDx=0;exitDy=0;entryX=0.5;entryY=1;entryDx=0;entryDy=0;" edge="1" parent="WIyWlLk6GJQsqaUBKTNV-1" source="y4FVQO3krvTa0PLzqtoc-13" target="y4FVQO3krvTa0PLzqtoc-9">
          <mxGeometry relative="1" as="geometry" />
        </mxCell>
        <mxCell id="y4FVQO3krvTa0PLzqtoc-13" value="&lt;font style=&quot;font-size: 18px;&quot;&gt;MLE(超出記憶體)&lt;/font&gt;" style="rounded=1;whiteSpace=wrap;html=1;fontSize=12;glass=0;strokeWidth=1;shadow=0;fillColor=#F8CECC;strokeColor=#6c8ebf;" parent="WIyWlLk6GJQsqaUBKTNV-1" vertex="1">
          <mxGeometry x="610" y="250" width="150" height="40" as="geometry" />
        </mxCell>
        <mxCell id="XxHlgfPTAKnLRC4UXlWn-15" style="edgeStyle=orthogonalEdgeStyle;rounded=0;orthogonalLoop=1;jettySize=auto;html=1;exitX=1;exitY=0.5;exitDx=0;exitDy=0;entryX=0.5;entryY=1;entryDx=0;entryDy=0;" edge="1" parent="WIyWlLk6GJQsqaUBKTNV-1" source="y4FVQO3krvTa0PLzqtoc-14" target="y4FVQO3krvTa0PLzqtoc-9">
          <mxGeometry relative="1" as="geometry" />
        </mxCell>
        <mxCell id="y4FVQO3krvTa0PLzqtoc-14" value="&lt;font style=&quot;font-size: 18px;&quot;&gt;WA(答案錯誤)&lt;/font&gt;" style="rounded=1;whiteSpace=wrap;html=1;fontSize=12;glass=0;strokeWidth=1;shadow=0;fillColor=#F8CECC;strokeColor=#6c8ebf;" parent="WIyWlLk6GJQsqaUBKTNV-1" vertex="1">
          <mxGeometry x="610" y="300" width="150" height="40" as="geometry" />
        </mxCell>
        <mxCell id="y4FVQO3krvTa0PLzqtoc-26" value="&lt;font style=&quot;font-size: 18px;&quot;&gt;優&lt;/font&gt;&lt;span style=&quot;font-size: 18px; background-color: initial;&quot;&gt;化&lt;/span&gt;&lt;span style=&quot;font-size: 18px; background-color: initial;&quot;&gt;速&lt;/span&gt;&lt;span style=&quot;font-size: 18px; background-color: initial;&quot;&gt;度&lt;/span&gt;" style="text;html=1;align=center;verticalAlign=middle;whiteSpace=wrap;rounded=0;fillColor=#D5E8D4;strokeColor=#6c8ebf;" parent="WIyWlLk6GJQsqaUBKTNV-1" vertex="1">
          <mxGeometry x="780" y="205" width="130" height="30" as="geometry" />
        </mxCell>
        <mxCell id="y4FVQO3krvTa0PLzqtoc-27" value="&lt;div style=&quot;text-align: center;&quot;&gt;&lt;span style=&quot;background-color: initial; font-size: 18px;&quot;&gt;確認是否讀錯格&lt;/span&gt;&lt;/div&gt;" style="text;whiteSpace=wrap;html=1;fillColor=#D5E8D4;strokeColor=#6c8ebf;" parent="WIyWlLk6GJQsqaUBKTNV-1" vertex="1">
          <mxGeometry x="780" y="255" width="130" height="30" as="geometry" />
        </mxCell>
        <mxCell id="y4FVQO3krvTa0PLzqtoc-28" value="&lt;div style=&quot;text-align: center;&quot;&gt;&lt;span style=&quot;background-color: initial; font-size: 18px;&quot;&gt;&amp;nbsp; 重新審視題目&lt;/span&gt;&lt;/div&gt;" style="text;whiteSpace=wrap;html=1;fillColor=#D5E8D4;strokeColor=#6c8ebf;" parent="WIyWlLk6GJQsqaUBKTNV-1" vertex="1">
          <mxGeometry x="780" y="300" width="130" height="30" as="geometry" />
        </mxCell>
        <mxCell id="XxHlgfPTAKnLRC4UXlWn-21" style="edgeStyle=orthogonalEdgeStyle;rounded=0;orthogonalLoop=1;jettySize=auto;html=1;exitX=1;exitY=0.5;exitDx=0;exitDy=0;entryX=0;entryY=0.5;entryDx=0;entryDy=0;" edge="1" parent="WIyWlLk6GJQsqaUBKTNV-1" source="y4FVQO3krvTa0PLzqtoc-30" target="y4FVQO3krvTa0PLzqtoc-36">
          <mxGeometry relative="1" as="geometry" />
        </mxCell>
        <mxCell id="XxHlgfPTAKnLRC4UXlWn-22" style="edgeStyle=orthogonalEdgeStyle;rounded=0;orthogonalLoop=1;jettySize=auto;html=1;exitX=1;exitY=0.5;exitDx=0;exitDy=0;entryX=0;entryY=0.5;entryDx=0;entryDy=0;" edge="1" parent="WIyWlLk6GJQsqaUBKTNV-1" source="y4FVQO3krvTa0PLzqtoc-30" target="y4FVQO3krvTa0PLzqtoc-34">
          <mxGeometry relative="1" as="geometry" />
        </mxCell>
        <mxCell id="y4FVQO3krvTa0PLzqtoc-30" value="&lt;span style=&quot;font-size: 18px;&quot;&gt;看別人怎麼解&lt;/span&gt;" style="rounded=1;whiteSpace=wrap;html=1;fontSize=12;glass=0;strokeWidth=1;shadow=0;fillColor=#fff2cc;strokeColor=#d6b656;" parent="WIyWlLk6GJQsqaUBKTNV-1" vertex="1">
          <mxGeometry x="1000" y="100" width="120" height="40" as="geometry" />
        </mxCell>
        <mxCell id="y4FVQO3krvTa0PLzqtoc-34" value="&lt;span style=&quot;font-size: 18px;&quot;&gt;學到更多演算法&lt;/span&gt;" style="rounded=1;whiteSpace=wrap;html=1;fontSize=12;glass=0;strokeWidth=1;shadow=0;fillColor=#fff2cc;strokeColor=#d6b656;" parent="WIyWlLk6GJQsqaUBKTNV-1" vertex="1">
          <mxGeometry x="1156" y="120" width="170" height="40" as="geometry" />
        </mxCell>
        <mxCell id="y4FVQO3krvTa0PLzqtoc-36" value="&lt;span style=&quot;font-size: 18px;&quot;&gt;有更多解題思路&lt;/span&gt;" style="rounded=1;whiteSpace=wrap;html=1;fontSize=12;glass=0;strokeWidth=1;shadow=0;fillColor=#fff2cc;strokeColor=#d6b656;" parent="WIyWlLk6GJQsqaUBKTNV-1" vertex="1">
          <mxGeometry x="1156" y="75" width="170" height="40" as="geometry" />
        </mxCell>
        <mxCell id="y4FVQO3krvTa0PLzqtoc-41" value="&lt;span style=&quot;font-size: 18px;&quot;&gt;錯誤&lt;/span&gt;" style="text;html=1;align=center;verticalAlign=middle;resizable=0;points=[];autosize=1;strokeColor=#6c8ebf;fillColor=#F8CECC;" parent="WIyWlLk6GJQsqaUBKTNV-1" vertex="1">
          <mxGeometry x="580" y="140" width="60" height="40" as="geometry" />
        </mxCell>
        <mxCell id="y4FVQO3krvTa0PLzqtoc-44" value="&lt;font style=&quot;font-size: 14px;&quot;&gt;還有其他錯誤等&lt;/font&gt;" style="text;html=1;align=center;verticalAlign=middle;resizable=0;points=[];autosize=1;strokeColor=#b85450;fillColor=#f8cecc;" parent="WIyWlLk6GJQsqaUBKTNV-1" vertex="1">
          <mxGeometry x="625" y="350" width="120" height="30" as="geometry" />
        </mxCell>
        <mxCell id="XxHlgfPTAKnLRC4UXlWn-2" value="" style="endArrow=classic;html=1;rounded=0;exitX=1;exitY=0.5;exitDx=0;exitDy=0;entryX=0;entryY=0.5;entryDx=0;entryDy=0;" edge="1" parent="WIyWlLk6GJQsqaUBKTNV-1" source="WIyWlLk6GJQsqaUBKTNV-3" target="RKyfr51ifwYay8Xh3c_W-2">
          <mxGeometry width="50" height="50" relative="1" as="geometry">
            <mxPoint x="290" y="230" as="sourcePoint" />
            <mxPoint x="340" y="180" as="targetPoint" />
          </mxGeometry>
        </mxCell>
        <mxCell id="XxHlgfPTAKnLRC4UXlWn-7" value="" style="endArrow=classic;html=1;rounded=0;exitX=1;exitY=0.5;exitDx=0;exitDy=0;entryX=0;entryY=0.5;entryDx=0;entryDy=0;" edge="1" parent="WIyWlLk6GJQsqaUBKTNV-1" source="RKyfr51ifwYay8Xh3c_W-2" target="y4FVQO3krvTa0PLzqtoc-9">
          <mxGeometry width="50" height="50" relative="1" as="geometry">
            <mxPoint x="890" y="370" as="sourcePoint" />
            <mxPoint x="940" y="320" as="targetPoint" />
          </mxGeometry>
        </mxCell>
        <mxCell id="XxHlgfPTAKnLRC4UXlWn-9" value="&lt;span style=&quot;font-size: 18px;&quot;&gt;正確&lt;/span&gt;" style="text;html=1;align=center;verticalAlign=middle;resizable=0;points=[];autosize=1;strokeColor=#6c8ebf;fillColor=#FFF2CC;" vertex="1" parent="WIyWlLk6GJQsqaUBKTNV-1">
          <mxGeometry x="580" y="70" width="60" height="40" as="geometry" />
        </mxCell>
      </root>
    </mxGraphModel>
  </diagram>
</mxfile>
